<?xml version="1.0" encoding="UTF-8"?>
<svg width="34px" height="34px" viewBox="0 0 34 34" version="1.1" xmlns="http://www.w3.org/2000/svg" xmlns:xlink="http://www.w3.org/1999/xlink">
    <!-- Generator: Sketch 46.2 (44496) - http://www.bohemiancoding.com/sketch -->
    <title>Calendar_icon</title>
    <desc>Created with Sketch.</desc>
    <defs></defs>
    <g id="Symbols" stroke="none" stroke-width="1" fill="none" fill-rule="evenodd">
        <g id="Calendar_icon">
            <rect id="Rectangle-12-Copy" fill="#FEFCF9" x="0" y="0" width="34" height="34"></rect>
            <g id="Calendar" transform="translate(2.000000, 2.000000)" fill-rule="nonzero" fill="#A82321">
                <g id="Layer_1">
                    <g id="Icon-Calendar">
                        <path d="M26.8723658,29.9524564 L2.98581842,29.9524564 C1.35719019,29.9524564 0,28.5947178 0,26.9654315 L0,5.03795278 C0,3.40866644 1.08575215,2.05092783 2.51080186,2.05092783 L4.00371107,2.05092783 L4.00371107,4.01964882 L2.51080186,4.01964882 C2.30722333,4.01964882 2.03578529,4.42697041 2.03578529,5.03795278 L2.03578529,26.9654315 C2.03578529,27.5085269 2.51080186,27.9837354 3.05367793,27.9837354 L26.9402253,27.9837354 C27.4831014,27.9837354 27.958118,27.5085269 27.958118,26.9654315 L27.958118,5.03795278 C27.958118,4.42697041 27.6188204,4.01964882 27.4831014,4.01964882 L25.9901922,4.01964882 L25.9901922,2.05092783 L27.4831014,2.05092783 C28.8402916,2.05092783 29.9939032,3.40866644 29.9939032,5.03795278 L29.9939032,26.9654315 C29.8581842,28.5947178 28.500994,29.9524564 26.8723658,29.9524564" id="Fill-133"></path>
                        <path d="M6.98952949,6.05625675 C6.44665341,6.05625675 5.97163685,5.58104823 5.97163685,5.03795278 L5.97163685,1.03262386 C5.97163685,0.489528416 6.44665341,0.0143198995 6.98952949,0.0143198995 C7.53240557,0.0143198995 8.00742213,0.489528416 8.00742213,1.03262386 L8.00742213,5.03795278 C7.93956262,5.58104823 7.53240557,6.05625675 6.98952949,6.05625675" id="Fill-134"></path>
                        <path d="M22.8686547,6.05625675 C22.3257787,6.05625675 21.8507621,5.58104823 21.8507621,5.03795278 L21.8507621,1.03262386 C21.8507621,0.489528416 22.3257787,0.0143198995 22.8686547,0.0143198995 C23.4115308,0.0143198995 23.8865474,0.489528416 23.8865474,1.03262386 L23.8865474,5.03795278 C23.8865474,5.58104823 23.4115308,6.05625675 22.8686547,6.05625675" id="Fill-135"></path>
                        <polygon id="Fill-136" points="9.97534791 2.05092783 19.8828363 2.05092783 19.8828363 4.08753575 9.97534791 4.08753575"></polygon>
                        <polygon id="Fill-137" points="1.96792578 8.02497774 27.8902584 8.02497774 27.8902584 10.0615857 1.96792578 10.0615857"></polygon>
                        <g id="Group-12" transform="translate(3.996024, 11.992916)">
                            <polygon id="Fill-138" points="19.8905235 0.0373908486 21.8584493 0.0373908486 21.8584493 2.00611184 19.8905235 2.00611184"></polygon>
                            <polygon id="Fill-139" points="15.8868125 0.0373908486 17.9225977 0.0373908486 17.9225977 2.00611184 15.8868125 2.00611184"></polygon>
                            <polygon id="Fill-140" points="11.9509609 0.0373908486 13.9188867 0.0373908486 13.9188867 2.00611184 11.9509609 2.00611184"></polygon>
                            <polygon id="Fill-141" points="7.94724983 0.0373908486 9.91517561 0.0373908486 9.91517561 2.00611184 7.94724983 2.00611184"></polygon>
                            <polygon id="Fill-142" points="3.94353877 0.0373908486 5.97932406 0.0373908486 5.97932406 2.00611184 3.94353877 2.00611184"></polygon>
                            <polygon id="Fill-143" points="19.8905235 4.04271977 21.8584493 4.04271977 21.8584493 6.01144077 19.8905235 6.01144077"></polygon>
                            <polygon id="Fill-144" points="15.8868125 4.04271977 17.9225977 4.04271977 17.9225977 6.01144077 15.8868125 6.01144077"></polygon>
                            <polygon id="Fill-145" points="11.9509609 4.04271977 13.9188867 4.04271977 13.9188867 6.01144077 11.9509609 6.01144077"></polygon>
                            <polygon id="Fill-146" points="7.94724983 4.04271977 9.91517561 4.04271977 9.91517561 6.01144077 7.94724983 6.01144077"></polygon>
                            <polygon id="Fill-147" points="3.94353877 4.04271977 5.97932406 4.04271977 5.97932406 6.01144077 3.94353877 6.01144077"></polygon>
                            <polygon id="Fill-148" points="0.00768721007 4.04271977 1.97561299 4.04271977 1.97561299 6.01144077 0.00768721007 6.01144077"></polygon>
                            <polygon id="Fill-149" points="19.8905235 7.98016176 21.8584493 7.98016176 21.8584493 10.0167697 19.8905235 10.0167697"></polygon>
                            <polygon id="Fill-150" points="15.8868125 7.98016176 17.9225977 7.98016176 17.9225977 10.0167697 15.8868125 10.0167697"></polygon>
                            <polygon id="Fill-151" points="11.9509609 7.98016176 13.9188867 7.98016176 13.9188867 10.0167697 11.9509609 10.0167697"></polygon>
                            <polygon id="Fill-152" points="7.94724983 7.98016176 9.91517561 7.98016176 9.91517561 10.0167697 7.94724983 10.0167697"></polygon>
                            <polygon id="Fill-153" points="3.94353877 7.98016176 5.97932406 7.98016176 5.97932406 10.0167697 3.94353877 10.0167697"></polygon>
                            <polygon id="Fill-154" points="0.00768721007 7.98016176 1.97561299 7.98016176 1.97561299 10.0167697 0.00768721007 10.0167697"></polygon>
                            <polygon id="Fill-155" points="15.8868125 11.9854907 17.9225977 11.9854907 17.9225977 13.9542117 15.8868125 13.9542117"></polygon>
                            <polygon id="Fill-156" points="11.9509609 11.9854907 13.9188867 11.9854907 13.9188867 13.9542117 11.9509609 13.9542117"></polygon>
                            <polygon id="Fill-157" points="7.94724983 11.9854907 9.91517561 11.9854907 9.91517561 13.9542117 7.94724983 13.9542117"></polygon>
                            <polygon id="Fill-158" points="3.94353877 11.9854907 5.97932406 11.9854907 5.97932406 13.9542117 3.94353877 13.9542117"></polygon>
                            <polygon id="Fill-159" points="0.00768721007 11.9854907 1.97561299 11.9854907 1.97561299 13.9542117 0.00768721007 13.9542117"></polygon>
                        </g>
                    </g>
                </g>
            </g>
        </g>
    </g>
</svg>