<?xml version="1.0" encoding="UTF-8"?>
<svg width="34px" height="34px" viewBox="0 0 34 34" version="1.1" xmlns="http://www.w3.org/2000/svg" xmlns:xlink="http://www.w3.org/1999/xlink">
    <!-- Generator: Sketch 46.2 (44496) - http://www.bohemiancoding.com/sketch -->
    <title>visit_icon</title>
    <desc>Created with Sketch.</desc>
    <defs></defs>
    <g id="Symbols" stroke="none" stroke-width="1" fill="none" fill-rule="evenodd">
        <g id="visit_icon">
            <rect id="Rectangle-12" fill="#FEFCF9" x="0" y="0" width="34" height="34"></rect>
            <g id="store" transform="translate(2.000000, 5.000000)" stroke="#2C76B7" stroke-width="1.875" stroke-linecap="round" stroke-linejoin="round">
                <rect id="Rectangle-path" x="3" y="9" width="24" height="15"></rect>
                <path d="M3,9 L0,9 L3,0 L27,0 L30,9 C30,9 3.375,9 3,9 Z" id="Shape"></path>
                <path d="M3.75,9.5125 C3.75,9.5125 3.75,11.625 5.79166667,11.625 C7.83333333,11.625 8.00416667,9.3375 8.00416667,9.3375" id="Shape"></path>
                <path d="M8.67083333,9.5125 C8.67083333,9.5125 8.67083333,11.625 10.7125,11.625 C12.7541667,11.625 12.925,9.3375 12.925,9.3375" id="Shape"></path>
                <path d="M13.2875,9.5125 C13.2875,9.5125 13.2875,11.625 15.3291667,11.625 C17.3708333,11.625 17.5416667,9.3375 17.5416667,9.3375" id="Shape"></path>
                <path d="M17.575,9.5125 C17.575,9.5125 17.575,11.625 19.6166667,11.625 C21.6583333,11.625 21.8291667,9.3375 21.8291667,9.3375" id="Shape"></path>
                <path d="M21.9916667,9.5125 C21.9916667,9.5125 21.9916667,11.625 24.0333333,11.625 C26.075,11.625 26.2458333,9.3375 26.2458333,9.3375" id="Shape"></path>
                <polyline id="Shape" points="9 24 9 15.375 21 15.375 21 24 9 24"></polyline>
            </g>
        </g>
    </g>
</svg>